%TF.GenerationSoftware,KiCad,Pcbnew,8.0.5*%
%TF.CreationDate,2024-09-21T17:11:46+02:00*%
%TF.ProjectId,keycap,6b657963-6170-42e6-9b69-6361645f7063,rev?*%
%TF.SameCoordinates,Original*%
%TF.FileFunction,Soldermask,Bot*%
%TF.FilePolarity,Negative*%
%FSLAX46Y46*%
G04 Gerber Fmt 4.6, Leading zero omitted, Abs format (unit mm)*
G04 Created by KiCad (PCBNEW 8.0.5) date 2024-09-21 17:11:46*
%MOMM*%
%LPD*%
G01*
G04 APERTURE LIST*
G04 APERTURE END LIST*
G36*
X124714047Y-118055685D02*
G01*
X124765408Y-118061644D01*
X124782954Y-118069391D01*
X124805671Y-118073910D01*
X124829991Y-118090160D01*
X124850793Y-118099345D01*
X124865000Y-118113552D01*
X124886777Y-118128103D01*
X124901327Y-118149879D01*
X124915534Y-118164086D01*
X124924718Y-118184886D01*
X124940970Y-118209209D01*
X124945489Y-118231928D01*
X124953235Y-118249471D01*
X124959192Y-118300820D01*
X124960000Y-118304880D01*
X124960000Y-119804880D01*
X124959192Y-119808939D01*
X124953235Y-119860288D01*
X124945489Y-119877830D01*
X124940970Y-119900551D01*
X124924716Y-119924875D01*
X124915534Y-119945673D01*
X124901329Y-119959877D01*
X124886777Y-119981657D01*
X124864997Y-119996209D01*
X124850793Y-120010414D01*
X124829995Y-120019596D01*
X124805671Y-120035850D01*
X124782950Y-120040369D01*
X124765408Y-120048115D01*
X124714061Y-120054072D01*
X124710000Y-120054880D01*
X124210000Y-120054880D01*
X124205941Y-120054072D01*
X124154591Y-120048115D01*
X124137048Y-120040369D01*
X124114329Y-120035850D01*
X124090006Y-120019598D01*
X124069206Y-120010414D01*
X124054999Y-119996207D01*
X124033223Y-119981657D01*
X124018672Y-119959880D01*
X124004465Y-119945673D01*
X123995280Y-119924871D01*
X123979030Y-119900551D01*
X123974511Y-119877834D01*
X123966764Y-119860288D01*
X123960805Y-119808929D01*
X123960000Y-119804880D01*
X123960000Y-118304880D01*
X123960804Y-118300833D01*
X123966764Y-118249471D01*
X123974511Y-118231923D01*
X123979030Y-118209209D01*
X123995278Y-118184890D01*
X124004465Y-118164086D01*
X124018674Y-118149876D01*
X124033223Y-118128103D01*
X124054996Y-118113554D01*
X124069206Y-118099345D01*
X124090010Y-118090158D01*
X124114329Y-118073910D01*
X124137043Y-118069391D01*
X124154591Y-118061644D01*
X124205952Y-118055685D01*
X124210000Y-118054880D01*
X124710000Y-118054880D01*
X124714047Y-118055685D01*
G37*
G36*
X115854047Y-119050805D02*
G01*
X115905408Y-119056764D01*
X115922954Y-119064511D01*
X115945671Y-119069030D01*
X115969991Y-119085280D01*
X115990793Y-119094465D01*
X116005000Y-119108672D01*
X116026777Y-119123223D01*
X116041327Y-119144999D01*
X116055534Y-119159206D01*
X116064718Y-119180006D01*
X116080970Y-119204329D01*
X116085489Y-119227048D01*
X116093235Y-119244591D01*
X116099192Y-119295940D01*
X116100000Y-119300000D01*
X116100000Y-119800000D01*
X116099192Y-119804059D01*
X116093235Y-119855408D01*
X116085489Y-119872950D01*
X116080970Y-119895671D01*
X116064716Y-119919995D01*
X116055534Y-119940793D01*
X116041329Y-119954997D01*
X116026777Y-119976777D01*
X116004997Y-119991329D01*
X115990793Y-120005534D01*
X115969995Y-120014716D01*
X115945671Y-120030970D01*
X115922950Y-120035489D01*
X115905408Y-120043235D01*
X115854061Y-120049192D01*
X115850000Y-120050000D01*
X114350000Y-120050000D01*
X114345941Y-120049192D01*
X114294591Y-120043235D01*
X114277048Y-120035489D01*
X114254329Y-120030970D01*
X114230006Y-120014718D01*
X114209206Y-120005534D01*
X114194999Y-119991327D01*
X114173223Y-119976777D01*
X114158672Y-119955000D01*
X114144465Y-119940793D01*
X114135280Y-119919991D01*
X114119030Y-119895671D01*
X114114511Y-119872954D01*
X114106764Y-119855408D01*
X114100805Y-119804049D01*
X114100000Y-119800000D01*
X114100000Y-119300000D01*
X114100804Y-119295953D01*
X114106764Y-119244591D01*
X114114511Y-119227043D01*
X114119030Y-119204329D01*
X114135278Y-119180010D01*
X114144465Y-119159206D01*
X114158674Y-119144996D01*
X114173223Y-119123223D01*
X114194996Y-119108674D01*
X114209206Y-119094465D01*
X114230010Y-119085278D01*
X114254329Y-119069030D01*
X114277043Y-119064511D01*
X114294591Y-119056764D01*
X114345952Y-119050805D01*
X114350000Y-119050000D01*
X115850000Y-119050000D01*
X115854047Y-119050805D01*
G37*
G36*
X127804047Y-119045905D02*
G01*
X127855408Y-119051864D01*
X127872954Y-119059611D01*
X127895671Y-119064130D01*
X127919991Y-119080380D01*
X127940793Y-119089565D01*
X127955000Y-119103772D01*
X127976777Y-119118323D01*
X127991327Y-119140099D01*
X128005534Y-119154306D01*
X128014718Y-119175106D01*
X128030970Y-119199429D01*
X128035489Y-119222148D01*
X128043235Y-119239691D01*
X128049192Y-119291040D01*
X128050000Y-119295100D01*
X128050000Y-119795100D01*
X128049192Y-119799159D01*
X128043235Y-119850508D01*
X128035489Y-119868050D01*
X128030970Y-119890771D01*
X128014716Y-119915095D01*
X128005534Y-119935893D01*
X127991329Y-119950097D01*
X127976777Y-119971877D01*
X127954997Y-119986429D01*
X127940793Y-120000634D01*
X127919995Y-120009816D01*
X127895671Y-120026070D01*
X127872950Y-120030589D01*
X127855408Y-120038335D01*
X127804061Y-120044292D01*
X127800000Y-120045100D01*
X126300000Y-120045100D01*
X126295941Y-120044292D01*
X126244591Y-120038335D01*
X126227048Y-120030589D01*
X126204329Y-120026070D01*
X126180006Y-120009818D01*
X126159206Y-120000634D01*
X126144999Y-119986427D01*
X126123223Y-119971877D01*
X126108672Y-119950100D01*
X126094465Y-119935893D01*
X126085280Y-119915091D01*
X126069030Y-119890771D01*
X126064511Y-119868054D01*
X126056764Y-119850508D01*
X126050805Y-119799149D01*
X126050000Y-119795100D01*
X126050000Y-119295100D01*
X126050804Y-119291053D01*
X126056764Y-119239691D01*
X126064511Y-119222143D01*
X126069030Y-119199429D01*
X126085278Y-119175110D01*
X126094465Y-119154306D01*
X126108674Y-119140096D01*
X126123223Y-119118323D01*
X126144996Y-119103774D01*
X126159206Y-119089565D01*
X126180010Y-119080378D01*
X126204329Y-119064130D01*
X126227043Y-119059611D01*
X126244591Y-119051864D01*
X126295952Y-119045905D01*
X126300000Y-119045100D01*
X127800000Y-119045100D01*
X127804047Y-119045905D01*
G37*
G36*
X121850000Y-120000000D02*
G01*
X120850000Y-120000000D01*
X120850000Y-119000000D01*
X121850000Y-119000000D01*
X121850000Y-120000000D01*
G37*
G36*
X118880929Y-117280592D02*
G01*
X119070212Y-117353920D01*
X119242798Y-117460781D01*
X119392810Y-117597535D01*
X119515139Y-117759525D01*
X119605619Y-117941234D01*
X119661170Y-118136476D01*
X119679900Y-118338600D01*
X119661170Y-118540724D01*
X119605619Y-118735966D01*
X119515139Y-118917675D01*
X119392810Y-119079665D01*
X119242798Y-119216419D01*
X119070212Y-119323280D01*
X118880929Y-119396608D01*
X118681395Y-119433908D01*
X118478405Y-119433908D01*
X118278871Y-119396608D01*
X118089588Y-119323280D01*
X117917002Y-119216419D01*
X117766990Y-119079665D01*
X117644661Y-118917675D01*
X117554181Y-118735966D01*
X117498630Y-118540724D01*
X117479900Y-118338600D01*
X117498630Y-118136476D01*
X117554181Y-117941234D01*
X117644661Y-117759525D01*
X117766990Y-117597535D01*
X117917002Y-117460781D01*
X118089588Y-117353920D01*
X118278871Y-117280592D01*
X118478405Y-117243292D01*
X118681395Y-117243292D01*
X118880929Y-117280592D01*
G37*
G36*
X115871927Y-116505905D02*
G01*
X115923288Y-116511864D01*
X115940834Y-116519611D01*
X115963551Y-116524130D01*
X115987871Y-116540380D01*
X116008673Y-116549565D01*
X116022880Y-116563772D01*
X116044657Y-116578323D01*
X116059207Y-116600099D01*
X116073414Y-116614306D01*
X116082598Y-116635106D01*
X116098850Y-116659429D01*
X116103369Y-116682148D01*
X116111115Y-116699691D01*
X116117072Y-116751040D01*
X116117880Y-116755100D01*
X116117880Y-117255100D01*
X116117072Y-117259159D01*
X116111115Y-117310508D01*
X116103369Y-117328050D01*
X116098850Y-117350771D01*
X116082596Y-117375095D01*
X116073414Y-117395893D01*
X116059209Y-117410097D01*
X116044657Y-117431877D01*
X116022877Y-117446429D01*
X116008673Y-117460634D01*
X115987875Y-117469816D01*
X115963551Y-117486070D01*
X115940830Y-117490589D01*
X115923288Y-117498335D01*
X115871941Y-117504292D01*
X115867880Y-117505100D01*
X114367880Y-117505100D01*
X114363821Y-117504292D01*
X114312471Y-117498335D01*
X114294928Y-117490589D01*
X114272209Y-117486070D01*
X114247886Y-117469818D01*
X114227086Y-117460634D01*
X114212879Y-117446427D01*
X114191103Y-117431877D01*
X114176552Y-117410100D01*
X114162345Y-117395893D01*
X114153160Y-117375091D01*
X114136910Y-117350771D01*
X114132391Y-117328054D01*
X114124644Y-117310508D01*
X114118685Y-117259149D01*
X114117880Y-117255100D01*
X114117880Y-116755100D01*
X114118684Y-116751053D01*
X114124644Y-116699691D01*
X114132391Y-116682143D01*
X114136910Y-116659429D01*
X114153158Y-116635110D01*
X114162345Y-116614306D01*
X114176554Y-116600096D01*
X114191103Y-116578323D01*
X114212876Y-116563774D01*
X114227086Y-116549565D01*
X114247890Y-116540378D01*
X114272209Y-116524130D01*
X114294923Y-116519611D01*
X114312471Y-116511864D01*
X114363832Y-116505905D01*
X114367880Y-116505100D01*
X115867880Y-116505100D01*
X115871927Y-116505905D01*
G37*
G36*
X121850000Y-117500000D02*
G01*
X120850000Y-117500000D01*
X120850000Y-116500000D01*
X121850000Y-116500000D01*
X121850000Y-117500000D01*
G37*
G36*
X127804047Y-116500805D02*
G01*
X127855408Y-116506764D01*
X127872954Y-116514511D01*
X127895671Y-116519030D01*
X127919991Y-116535280D01*
X127940793Y-116544465D01*
X127955000Y-116558672D01*
X127976777Y-116573223D01*
X127991327Y-116594999D01*
X128005534Y-116609206D01*
X128014718Y-116630006D01*
X128030970Y-116654329D01*
X128035489Y-116677048D01*
X128043235Y-116694591D01*
X128049192Y-116745940D01*
X128050000Y-116750000D01*
X128050000Y-117250000D01*
X128049192Y-117254059D01*
X128043235Y-117305408D01*
X128035489Y-117322950D01*
X128030970Y-117345671D01*
X128014716Y-117369995D01*
X128005534Y-117390793D01*
X127991329Y-117404997D01*
X127976777Y-117426777D01*
X127954997Y-117441329D01*
X127940793Y-117455534D01*
X127919995Y-117464716D01*
X127895671Y-117480970D01*
X127872950Y-117485489D01*
X127855408Y-117493235D01*
X127804061Y-117499192D01*
X127800000Y-117500000D01*
X126300000Y-117500000D01*
X126295941Y-117499192D01*
X126244591Y-117493235D01*
X126227048Y-117485489D01*
X126204329Y-117480970D01*
X126180006Y-117464718D01*
X126159206Y-117455534D01*
X126144999Y-117441327D01*
X126123223Y-117426777D01*
X126108672Y-117405000D01*
X126094465Y-117390793D01*
X126085280Y-117369991D01*
X126069030Y-117345671D01*
X126064511Y-117322954D01*
X126056764Y-117305408D01*
X126050805Y-117254049D01*
X126050000Y-117250000D01*
X126050000Y-116750000D01*
X126050804Y-116745953D01*
X126056764Y-116694591D01*
X126064511Y-116677043D01*
X126069030Y-116654329D01*
X126085278Y-116630010D01*
X126094465Y-116609206D01*
X126108674Y-116594996D01*
X126123223Y-116573223D01*
X126144996Y-116558674D01*
X126159206Y-116544465D01*
X126180010Y-116535278D01*
X126204329Y-116519030D01*
X126227043Y-116514511D01*
X126244591Y-116506764D01*
X126295952Y-116500805D01*
X126300000Y-116500000D01*
X127800000Y-116500000D01*
X127804047Y-116500805D01*
G37*
G36*
X125230929Y-114740592D02*
G01*
X125420212Y-114813920D01*
X125592798Y-114920781D01*
X125742810Y-115057535D01*
X125865139Y-115219525D01*
X125955619Y-115401234D01*
X126011170Y-115596476D01*
X126029900Y-115798600D01*
X126011170Y-116000724D01*
X125955619Y-116195966D01*
X125865139Y-116377675D01*
X125742810Y-116539665D01*
X125592798Y-116676419D01*
X125420212Y-116783280D01*
X125230929Y-116856608D01*
X125031395Y-116893908D01*
X124828405Y-116893908D01*
X124628871Y-116856608D01*
X124439588Y-116783280D01*
X124267002Y-116676419D01*
X124116990Y-116539665D01*
X123994661Y-116377675D01*
X123904181Y-116195966D01*
X123848630Y-116000724D01*
X123829900Y-115798600D01*
X123848630Y-115596476D01*
X123904181Y-115401234D01*
X123994661Y-115219525D01*
X124116990Y-115057535D01*
X124267002Y-114920781D01*
X124439588Y-114813920D01*
X124628871Y-114740592D01*
X124828405Y-114703292D01*
X125031395Y-114703292D01*
X125230929Y-114740592D01*
G37*
G36*
X121186720Y-111263379D02*
G01*
X121256379Y-111263379D01*
X121331951Y-111273766D01*
X121404530Y-111278957D01*
X121464270Y-111291952D01*
X121526784Y-111300545D01*
X121606704Y-111322937D01*
X121683365Y-111339614D01*
X121735118Y-111358917D01*
X121789618Y-111374187D01*
X121872009Y-111409974D01*
X121950730Y-111439336D01*
X121993997Y-111462961D01*
X122039978Y-111482934D01*
X122122698Y-111533237D01*
X122201182Y-111576093D01*
X122235864Y-111602056D01*
X122273191Y-111624755D01*
X122353906Y-111690421D01*
X122429621Y-111747101D01*
X122456002Y-111773482D01*
X122484928Y-111797015D01*
X122561165Y-111878645D01*
X122631399Y-111948879D01*
X122650140Y-111973914D01*
X122671231Y-111996497D01*
X122740403Y-112094491D01*
X122802407Y-112177318D01*
X122814491Y-112199449D01*
X122828640Y-112219493D01*
X122888166Y-112334374D01*
X122939164Y-112427770D01*
X122945855Y-112445710D01*
X122954214Y-112461842D01*
X123001545Y-112595020D01*
X123038886Y-112695135D01*
X123041663Y-112707904D01*
X123045621Y-112719039D01*
X123078395Y-112876757D01*
X123099543Y-112973970D01*
X123100039Y-112980912D01*
X123101156Y-112986285D01*
X123117216Y-113221082D01*
X123119900Y-113258600D01*
X123117216Y-113296120D01*
X123101156Y-113530914D01*
X123100039Y-113536286D01*
X123099543Y-113543230D01*
X123078391Y-113640463D01*
X123045621Y-113798160D01*
X123041664Y-113809292D01*
X123038886Y-113822065D01*
X123001537Y-113922199D01*
X122954214Y-114055357D01*
X122945856Y-114071485D01*
X122939164Y-114089430D01*
X122888156Y-114182843D01*
X122828640Y-114297706D01*
X122814494Y-114317745D01*
X122802407Y-114339882D01*
X122740391Y-114422724D01*
X122671231Y-114520702D01*
X122650144Y-114543280D01*
X122631399Y-114568321D01*
X122561151Y-114638568D01*
X122484928Y-114720184D01*
X122456007Y-114743712D01*
X122429621Y-114770099D01*
X122353890Y-114826790D01*
X122273191Y-114892444D01*
X122235871Y-114915138D01*
X122201182Y-114941107D01*
X122122682Y-114983971D01*
X122039978Y-115034265D01*
X121994006Y-115054233D01*
X121950730Y-115077864D01*
X121871993Y-115107231D01*
X121789618Y-115143012D01*
X121735129Y-115158278D01*
X121683365Y-115177586D01*
X121606688Y-115194265D01*
X121526784Y-115216654D01*
X121464280Y-115225245D01*
X121404530Y-115238243D01*
X121331947Y-115243434D01*
X121256379Y-115253821D01*
X121186720Y-115253821D01*
X121119900Y-115258600D01*
X121053080Y-115253821D01*
X120983421Y-115253821D01*
X120907852Y-115243434D01*
X120835270Y-115238243D01*
X120775521Y-115225245D01*
X120713015Y-115216654D01*
X120633106Y-115194265D01*
X120556435Y-115177586D01*
X120504673Y-115158279D01*
X120450181Y-115143012D01*
X120367799Y-115107228D01*
X120289070Y-115077864D01*
X120245797Y-115054235D01*
X120199821Y-115034265D01*
X120117107Y-114983965D01*
X120038618Y-114941107D01*
X120003932Y-114915141D01*
X119966608Y-114892444D01*
X119885896Y-114826780D01*
X119810179Y-114770099D01*
X119783796Y-114743716D01*
X119754871Y-114720184D01*
X119678633Y-114638553D01*
X119608401Y-114568321D01*
X119589659Y-114543285D01*
X119568568Y-114520702D01*
X119499391Y-114422701D01*
X119437393Y-114339882D01*
X119425309Y-114317751D01*
X119411159Y-114297706D01*
X119351624Y-114182807D01*
X119300636Y-114089430D01*
X119293945Y-114071492D01*
X119285585Y-114055357D01*
X119238241Y-113922142D01*
X119200914Y-113822065D01*
X119198137Y-113809300D01*
X119194178Y-113798160D01*
X119161386Y-113640361D01*
X119140257Y-113543230D01*
X119139760Y-113536293D01*
X119138643Y-113530914D01*
X119122560Y-113295800D01*
X119119900Y-113258600D01*
X119122560Y-113221402D01*
X119138643Y-112986285D01*
X119139761Y-112980904D01*
X119140257Y-112973970D01*
X119161381Y-112876860D01*
X119194178Y-112719039D01*
X119198137Y-112707897D01*
X119200914Y-112695135D01*
X119238233Y-112595077D01*
X119285585Y-112461842D01*
X119293946Y-112445703D01*
X119300636Y-112427770D01*
X119351613Y-112334410D01*
X119411159Y-112219493D01*
X119425311Y-112199443D01*
X119437393Y-112177318D01*
X119499378Y-112094515D01*
X119568568Y-111996497D01*
X119589663Y-111973908D01*
X119608401Y-111948879D01*
X119678619Y-111878660D01*
X119754871Y-111797015D01*
X119783802Y-111773477D01*
X119810179Y-111747101D01*
X119885881Y-111690430D01*
X119966608Y-111624755D01*
X120003939Y-111602052D01*
X120038618Y-111576093D01*
X120117091Y-111533243D01*
X120199821Y-111482934D01*
X120245806Y-111462959D01*
X120289070Y-111439336D01*
X120367783Y-111409977D01*
X120450181Y-111374187D01*
X120504684Y-111358916D01*
X120556435Y-111339614D01*
X120633090Y-111322938D01*
X120713015Y-111300545D01*
X120775530Y-111291952D01*
X120835270Y-111278957D01*
X120907847Y-111273766D01*
X120983421Y-111263379D01*
X121053080Y-111263379D01*
X121119900Y-111258600D01*
X121186720Y-111263379D01*
G37*
G36*
X127804047Y-113965905D02*
G01*
X127855408Y-113971864D01*
X127872954Y-113979611D01*
X127895671Y-113984130D01*
X127919991Y-114000380D01*
X127940793Y-114009565D01*
X127955000Y-114023772D01*
X127976777Y-114038323D01*
X127991327Y-114060099D01*
X128005534Y-114074306D01*
X128014718Y-114095106D01*
X128030970Y-114119429D01*
X128035489Y-114142148D01*
X128043235Y-114159691D01*
X128049192Y-114211040D01*
X128050000Y-114215100D01*
X128050000Y-114715100D01*
X128049192Y-114719159D01*
X128043235Y-114770508D01*
X128035489Y-114788050D01*
X128030970Y-114810771D01*
X128014716Y-114835095D01*
X128005534Y-114855893D01*
X127991329Y-114870097D01*
X127976777Y-114891877D01*
X127954997Y-114906429D01*
X127940793Y-114920634D01*
X127919995Y-114929816D01*
X127895671Y-114946070D01*
X127872950Y-114950589D01*
X127855408Y-114958335D01*
X127804061Y-114964292D01*
X127800000Y-114965100D01*
X126300000Y-114965100D01*
X126295941Y-114964292D01*
X126244591Y-114958335D01*
X126227048Y-114950589D01*
X126204329Y-114946070D01*
X126180006Y-114929818D01*
X126159206Y-114920634D01*
X126144999Y-114906427D01*
X126123223Y-114891877D01*
X126108672Y-114870100D01*
X126094465Y-114855893D01*
X126085280Y-114835091D01*
X126069030Y-114810771D01*
X126064511Y-114788054D01*
X126056764Y-114770508D01*
X126050805Y-114719149D01*
X126050000Y-114715100D01*
X126050000Y-114215100D01*
X126050804Y-114211053D01*
X126056764Y-114159691D01*
X126064511Y-114142143D01*
X126069030Y-114119429D01*
X126085278Y-114095110D01*
X126094465Y-114074306D01*
X126108674Y-114060096D01*
X126123223Y-114038323D01*
X126144996Y-114023774D01*
X126159206Y-114009565D01*
X126180010Y-114000378D01*
X126204329Y-113984130D01*
X126227043Y-113979611D01*
X126244591Y-113971864D01*
X126295952Y-113965905D01*
X126300000Y-113965100D01*
X127800000Y-113965100D01*
X127804047Y-113965905D01*
G37*
G36*
X115904047Y-113950665D02*
G01*
X115955408Y-113956624D01*
X115972954Y-113964371D01*
X115995671Y-113968890D01*
X116019991Y-113985140D01*
X116040793Y-113994325D01*
X116055000Y-114008532D01*
X116076777Y-114023083D01*
X116091327Y-114044859D01*
X116105534Y-114059066D01*
X116114718Y-114079866D01*
X116130970Y-114104189D01*
X116135489Y-114126908D01*
X116143235Y-114144451D01*
X116149192Y-114195800D01*
X116150000Y-114199860D01*
X116150000Y-114699860D01*
X116149192Y-114703919D01*
X116143235Y-114755268D01*
X116135489Y-114772810D01*
X116130970Y-114795531D01*
X116114716Y-114819855D01*
X116105534Y-114840653D01*
X116091329Y-114854857D01*
X116076777Y-114876637D01*
X116054997Y-114891189D01*
X116040793Y-114905394D01*
X116019995Y-114914576D01*
X115995671Y-114930830D01*
X115972950Y-114935349D01*
X115955408Y-114943095D01*
X115904061Y-114949052D01*
X115900000Y-114949860D01*
X114400000Y-114949860D01*
X114395941Y-114949052D01*
X114344591Y-114943095D01*
X114327048Y-114935349D01*
X114304329Y-114930830D01*
X114280006Y-114914578D01*
X114259206Y-114905394D01*
X114244999Y-114891187D01*
X114223223Y-114876637D01*
X114208672Y-114854860D01*
X114194465Y-114840653D01*
X114185280Y-114819851D01*
X114169030Y-114795531D01*
X114164511Y-114772814D01*
X114156764Y-114755268D01*
X114150805Y-114703909D01*
X114150000Y-114699860D01*
X114150000Y-114199860D01*
X114150804Y-114195813D01*
X114156764Y-114144451D01*
X114164511Y-114126903D01*
X114169030Y-114104189D01*
X114185278Y-114079870D01*
X114194465Y-114059066D01*
X114208674Y-114044856D01*
X114223223Y-114023083D01*
X114244996Y-114008534D01*
X114259206Y-113994325D01*
X114280010Y-113985138D01*
X114304329Y-113968890D01*
X114327043Y-113964371D01*
X114344591Y-113956624D01*
X114395952Y-113950665D01*
X114400000Y-113949860D01*
X115900000Y-113949860D01*
X115904047Y-113950665D01*
G37*
G36*
X125123450Y-113405605D02*
G01*
X125189957Y-113450043D01*
X125234395Y-113516550D01*
X125250000Y-113595000D01*
X125250000Y-114005000D01*
X125234395Y-114083450D01*
X125189957Y-114149957D01*
X125123450Y-114194395D01*
X125045000Y-114210000D01*
X123755000Y-114210000D01*
X123676550Y-114194395D01*
X123610043Y-114149957D01*
X123565605Y-114083450D01*
X123550000Y-114005000D01*
X123550000Y-113595000D01*
X123565605Y-113516550D01*
X123610043Y-113450043D01*
X123676550Y-113405605D01*
X123755000Y-113390000D01*
X125045000Y-113390000D01*
X125123450Y-113405605D01*
G37*
G36*
X115917647Y-111425905D02*
G01*
X115969008Y-111431864D01*
X115986554Y-111439611D01*
X116009271Y-111444130D01*
X116033591Y-111460380D01*
X116054393Y-111469565D01*
X116068600Y-111483772D01*
X116090377Y-111498323D01*
X116104927Y-111520099D01*
X116119134Y-111534306D01*
X116128318Y-111555106D01*
X116144570Y-111579429D01*
X116149089Y-111602148D01*
X116156835Y-111619691D01*
X116162792Y-111671040D01*
X116163600Y-111675100D01*
X116163600Y-112175100D01*
X116162792Y-112179159D01*
X116156835Y-112230508D01*
X116149089Y-112248050D01*
X116144570Y-112270771D01*
X116128316Y-112295095D01*
X116119134Y-112315893D01*
X116104929Y-112330097D01*
X116090377Y-112351877D01*
X116068597Y-112366429D01*
X116054393Y-112380634D01*
X116033595Y-112389816D01*
X116009271Y-112406070D01*
X115986550Y-112410589D01*
X115969008Y-112418335D01*
X115917661Y-112424292D01*
X115913600Y-112425100D01*
X114413600Y-112425100D01*
X114409541Y-112424292D01*
X114358191Y-112418335D01*
X114340648Y-112410589D01*
X114317929Y-112406070D01*
X114293606Y-112389818D01*
X114272806Y-112380634D01*
X114258599Y-112366427D01*
X114236823Y-112351877D01*
X114222272Y-112330100D01*
X114208065Y-112315893D01*
X114198880Y-112295091D01*
X114182630Y-112270771D01*
X114178111Y-112248054D01*
X114170364Y-112230508D01*
X114164405Y-112179149D01*
X114163600Y-112175100D01*
X114163600Y-111675100D01*
X114164404Y-111671053D01*
X114170364Y-111619691D01*
X114178111Y-111602143D01*
X114182630Y-111579429D01*
X114198878Y-111555110D01*
X114208065Y-111534306D01*
X114222274Y-111520096D01*
X114236823Y-111498323D01*
X114258596Y-111483774D01*
X114272806Y-111469565D01*
X114293610Y-111460378D01*
X114317929Y-111444130D01*
X114340643Y-111439611D01*
X114358191Y-111431864D01*
X114409552Y-111425905D01*
X114413600Y-111425100D01*
X115913600Y-111425100D01*
X115917647Y-111425905D01*
G37*
G36*
X127804047Y-111425905D02*
G01*
X127855408Y-111431864D01*
X127872954Y-111439611D01*
X127895671Y-111444130D01*
X127919991Y-111460380D01*
X127940793Y-111469565D01*
X127955000Y-111483772D01*
X127976777Y-111498323D01*
X127991327Y-111520099D01*
X128005534Y-111534306D01*
X128014718Y-111555106D01*
X128030970Y-111579429D01*
X128035489Y-111602148D01*
X128043235Y-111619691D01*
X128049192Y-111671040D01*
X128050000Y-111675100D01*
X128050000Y-112175100D01*
X128049192Y-112179159D01*
X128043235Y-112230508D01*
X128035489Y-112248050D01*
X128030970Y-112270771D01*
X128014716Y-112295095D01*
X128005534Y-112315893D01*
X127991329Y-112330097D01*
X127976777Y-112351877D01*
X127954997Y-112366429D01*
X127940793Y-112380634D01*
X127919995Y-112389816D01*
X127895671Y-112406070D01*
X127872950Y-112410589D01*
X127855408Y-112418335D01*
X127804061Y-112424292D01*
X127800000Y-112425100D01*
X126300000Y-112425100D01*
X126295941Y-112424292D01*
X126244591Y-112418335D01*
X126227048Y-112410589D01*
X126204329Y-112406070D01*
X126180006Y-112389818D01*
X126159206Y-112380634D01*
X126144999Y-112366427D01*
X126123223Y-112351877D01*
X126108672Y-112330100D01*
X126094465Y-112315893D01*
X126085280Y-112295091D01*
X126069030Y-112270771D01*
X126064511Y-112248054D01*
X126056764Y-112230508D01*
X126050805Y-112179149D01*
X126050000Y-112175100D01*
X126050000Y-111675100D01*
X126050804Y-111671053D01*
X126056764Y-111619691D01*
X126064511Y-111602143D01*
X126069030Y-111579429D01*
X126085278Y-111555110D01*
X126094465Y-111534306D01*
X126108674Y-111520096D01*
X126123223Y-111498323D01*
X126144996Y-111483774D01*
X126159206Y-111469565D01*
X126180010Y-111460378D01*
X126204329Y-111444130D01*
X126227043Y-111439611D01*
X126244591Y-111431864D01*
X126295952Y-111425905D01*
X126300000Y-111425100D01*
X127800000Y-111425100D01*
X127804047Y-111425905D01*
G37*
G36*
X125123450Y-110205605D02*
G01*
X125189957Y-110250043D01*
X125234395Y-110316550D01*
X125250000Y-110395000D01*
X125250000Y-110805000D01*
X125234395Y-110883450D01*
X125189957Y-110949957D01*
X125123450Y-110994395D01*
X125045000Y-111010000D01*
X123755000Y-111010000D01*
X123676550Y-110994395D01*
X123610043Y-110949957D01*
X123565605Y-110883450D01*
X123550000Y-110805000D01*
X123550000Y-110395000D01*
X123565605Y-110316550D01*
X123610043Y-110250043D01*
X123676550Y-110205605D01*
X123755000Y-110190000D01*
X125045000Y-110190000D01*
X125123450Y-110205605D01*
G37*
G36*
X119400000Y-109360000D02*
G01*
X117700000Y-109360000D01*
X117700000Y-108540000D01*
X119400000Y-108540000D01*
X119400000Y-109360000D01*
G37*
G36*
X124500000Y-109360000D02*
G01*
X122800000Y-109360000D01*
X122800000Y-108540000D01*
X124500000Y-108540000D01*
X124500000Y-109360000D01*
G37*
G36*
X127154047Y-106452965D02*
G01*
X127205408Y-106458924D01*
X127222954Y-106466671D01*
X127245671Y-106471190D01*
X127269991Y-106487440D01*
X127290793Y-106496625D01*
X127305000Y-106510832D01*
X127326777Y-106525383D01*
X127341327Y-106547159D01*
X127355534Y-106561366D01*
X127364718Y-106582166D01*
X127380970Y-106606489D01*
X127385489Y-106629208D01*
X127393235Y-106646751D01*
X127399192Y-106698100D01*
X127400000Y-106702160D01*
X127400000Y-108202160D01*
X127399192Y-108206219D01*
X127393235Y-108257568D01*
X127385489Y-108275110D01*
X127380970Y-108297831D01*
X127364716Y-108322155D01*
X127355534Y-108342953D01*
X127341329Y-108357157D01*
X127326777Y-108378937D01*
X127304997Y-108393489D01*
X127290793Y-108407694D01*
X127269995Y-108416876D01*
X127245671Y-108433130D01*
X127222950Y-108437649D01*
X127205408Y-108445395D01*
X127154061Y-108451352D01*
X127150000Y-108452160D01*
X126650000Y-108452160D01*
X126645941Y-108451352D01*
X126594591Y-108445395D01*
X126577048Y-108437649D01*
X126554329Y-108433130D01*
X126530006Y-108416878D01*
X126509206Y-108407694D01*
X126494999Y-108393487D01*
X126473223Y-108378937D01*
X126458672Y-108357160D01*
X126444465Y-108342953D01*
X126435280Y-108322151D01*
X126419030Y-108297831D01*
X126414511Y-108275114D01*
X126406764Y-108257568D01*
X126400805Y-108206209D01*
X126400000Y-108202160D01*
X126400000Y-106702160D01*
X126400804Y-106698113D01*
X126406764Y-106646751D01*
X126414511Y-106629203D01*
X126419030Y-106606489D01*
X126435278Y-106582170D01*
X126444465Y-106561366D01*
X126458674Y-106547156D01*
X126473223Y-106525383D01*
X126494996Y-106510834D01*
X126509206Y-106496625D01*
X126530010Y-106487438D01*
X126554329Y-106471190D01*
X126577043Y-106466671D01*
X126594591Y-106458924D01*
X126645952Y-106452965D01*
X126650000Y-106452160D01*
X127150000Y-106452160D01*
X127154047Y-106452965D01*
G37*
G36*
X119273450Y-107055605D02*
G01*
X119339957Y-107100043D01*
X119384395Y-107166550D01*
X119400000Y-107245000D01*
X119400000Y-107655000D01*
X119384395Y-107733450D01*
X119339957Y-107799957D01*
X119273450Y-107844395D01*
X119195000Y-107860000D01*
X117905000Y-107860000D01*
X117826550Y-107844395D01*
X117760043Y-107799957D01*
X117715605Y-107733450D01*
X117700000Y-107655000D01*
X117700000Y-107245000D01*
X117715605Y-107166550D01*
X117760043Y-107100043D01*
X117826550Y-107055605D01*
X117905000Y-107040000D01*
X119195000Y-107040000D01*
X119273450Y-107055605D01*
G37*
G36*
X124500000Y-107860000D02*
G01*
X122800000Y-107860000D01*
X122800000Y-107040000D01*
X124500000Y-107040000D01*
X124500000Y-107860000D01*
G37*
M02*
