%TF.GenerationSoftware,KiCad,Pcbnew,8.0.5*%
%TF.CreationDate,2024-09-21T17:11:46+02:00*%
%TF.ProjectId,keycap,6b657963-6170-42e6-9b69-6361645f7063,rev?*%
%TF.SameCoordinates,Original*%
%TF.FileFunction,Soldermask,Top*%
%TF.FilePolarity,Negative*%
%FSLAX46Y46*%
G04 Gerber Fmt 4.6, Leading zero omitted, Abs format (unit mm)*
G04 Created by KiCad (PCBNEW 8.0.5) date 2024-09-21 17:11:46*
%MOMM*%
%LPD*%
G01*
G04 APERTURE LIST*
G04 APERTURE END LIST*
G36*
X118880929Y-117280592D02*
G01*
X119070212Y-117353920D01*
X119242798Y-117460781D01*
X119392810Y-117597535D01*
X119515139Y-117759525D01*
X119605619Y-117941234D01*
X119661170Y-118136476D01*
X119679900Y-118338600D01*
X119661170Y-118540724D01*
X119605619Y-118735966D01*
X119515139Y-118917675D01*
X119392810Y-119079665D01*
X119242798Y-119216419D01*
X119070212Y-119323280D01*
X118880929Y-119396608D01*
X118681395Y-119433908D01*
X118478405Y-119433908D01*
X118278871Y-119396608D01*
X118089588Y-119323280D01*
X117917002Y-119216419D01*
X117766990Y-119079665D01*
X117644661Y-118917675D01*
X117554181Y-118735966D01*
X117498630Y-118540724D01*
X117479900Y-118338600D01*
X117498630Y-118136476D01*
X117554181Y-117941234D01*
X117644661Y-117759525D01*
X117766990Y-117597535D01*
X117917002Y-117460781D01*
X118089588Y-117353920D01*
X118278871Y-117280592D01*
X118478405Y-117243292D01*
X118681395Y-117243292D01*
X118880929Y-117280592D01*
G37*
G36*
X125230929Y-114740592D02*
G01*
X125420212Y-114813920D01*
X125592798Y-114920781D01*
X125742810Y-115057535D01*
X125865139Y-115219525D01*
X125955619Y-115401234D01*
X126011170Y-115596476D01*
X126029900Y-115798600D01*
X126011170Y-116000724D01*
X125955619Y-116195966D01*
X125865139Y-116377675D01*
X125742810Y-116539665D01*
X125592798Y-116676419D01*
X125420212Y-116783280D01*
X125230929Y-116856608D01*
X125031395Y-116893908D01*
X124828405Y-116893908D01*
X124628871Y-116856608D01*
X124439588Y-116783280D01*
X124267002Y-116676419D01*
X124116990Y-116539665D01*
X123994661Y-116377675D01*
X123904181Y-116195966D01*
X123848630Y-116000724D01*
X123829900Y-115798600D01*
X123848630Y-115596476D01*
X123904181Y-115401234D01*
X123994661Y-115219525D01*
X124116990Y-115057535D01*
X124267002Y-114920781D01*
X124439588Y-114813920D01*
X124628871Y-114740592D01*
X124828405Y-114703292D01*
X125031395Y-114703292D01*
X125230929Y-114740592D01*
G37*
G36*
X121186720Y-111263379D02*
G01*
X121256379Y-111263379D01*
X121331951Y-111273766D01*
X121404530Y-111278957D01*
X121464270Y-111291952D01*
X121526784Y-111300545D01*
X121606704Y-111322937D01*
X121683365Y-111339614D01*
X121735118Y-111358917D01*
X121789618Y-111374187D01*
X121872009Y-111409974D01*
X121950730Y-111439336D01*
X121993997Y-111462961D01*
X122039978Y-111482934D01*
X122122698Y-111533237D01*
X122201182Y-111576093D01*
X122235864Y-111602056D01*
X122273191Y-111624755D01*
X122353906Y-111690421D01*
X122429621Y-111747101D01*
X122456002Y-111773482D01*
X122484928Y-111797015D01*
X122561165Y-111878645D01*
X122631399Y-111948879D01*
X122650140Y-111973914D01*
X122671231Y-111996497D01*
X122740403Y-112094491D01*
X122802407Y-112177318D01*
X122814491Y-112199449D01*
X122828640Y-112219493D01*
X122888166Y-112334374D01*
X122939164Y-112427770D01*
X122945855Y-112445710D01*
X122954214Y-112461842D01*
X123001545Y-112595020D01*
X123038886Y-112695135D01*
X123041663Y-112707904D01*
X123045621Y-112719039D01*
X123078395Y-112876757D01*
X123099543Y-112973970D01*
X123100039Y-112980912D01*
X123101156Y-112986285D01*
X123117216Y-113221082D01*
X123119900Y-113258600D01*
X123117216Y-113296120D01*
X123101156Y-113530914D01*
X123100039Y-113536286D01*
X123099543Y-113543230D01*
X123078391Y-113640463D01*
X123045621Y-113798160D01*
X123041664Y-113809292D01*
X123038886Y-113822065D01*
X123001537Y-113922199D01*
X122954214Y-114055357D01*
X122945856Y-114071485D01*
X122939164Y-114089430D01*
X122888156Y-114182843D01*
X122828640Y-114297706D01*
X122814494Y-114317745D01*
X122802407Y-114339882D01*
X122740391Y-114422724D01*
X122671231Y-114520702D01*
X122650144Y-114543280D01*
X122631399Y-114568321D01*
X122561151Y-114638568D01*
X122484928Y-114720184D01*
X122456007Y-114743712D01*
X122429621Y-114770099D01*
X122353890Y-114826790D01*
X122273191Y-114892444D01*
X122235871Y-114915138D01*
X122201182Y-114941107D01*
X122122682Y-114983971D01*
X122039978Y-115034265D01*
X121994006Y-115054233D01*
X121950730Y-115077864D01*
X121871993Y-115107231D01*
X121789618Y-115143012D01*
X121735129Y-115158278D01*
X121683365Y-115177586D01*
X121606688Y-115194265D01*
X121526784Y-115216654D01*
X121464280Y-115225245D01*
X121404530Y-115238243D01*
X121331947Y-115243434D01*
X121256379Y-115253821D01*
X121186720Y-115253821D01*
X121119900Y-115258600D01*
X121053080Y-115253821D01*
X120983421Y-115253821D01*
X120907852Y-115243434D01*
X120835270Y-115238243D01*
X120775521Y-115225245D01*
X120713015Y-115216654D01*
X120633106Y-115194265D01*
X120556435Y-115177586D01*
X120504673Y-115158279D01*
X120450181Y-115143012D01*
X120367799Y-115107228D01*
X120289070Y-115077864D01*
X120245797Y-115054235D01*
X120199821Y-115034265D01*
X120117107Y-114983965D01*
X120038618Y-114941107D01*
X120003932Y-114915141D01*
X119966608Y-114892444D01*
X119885896Y-114826780D01*
X119810179Y-114770099D01*
X119783796Y-114743716D01*
X119754871Y-114720184D01*
X119678633Y-114638553D01*
X119608401Y-114568321D01*
X119589659Y-114543285D01*
X119568568Y-114520702D01*
X119499391Y-114422701D01*
X119437393Y-114339882D01*
X119425309Y-114317751D01*
X119411159Y-114297706D01*
X119351624Y-114182807D01*
X119300636Y-114089430D01*
X119293945Y-114071492D01*
X119285585Y-114055357D01*
X119238241Y-113922142D01*
X119200914Y-113822065D01*
X119198137Y-113809300D01*
X119194178Y-113798160D01*
X119161386Y-113640361D01*
X119140257Y-113543230D01*
X119139760Y-113536293D01*
X119138643Y-113530914D01*
X119122560Y-113295800D01*
X119119900Y-113258600D01*
X119122560Y-113221402D01*
X119138643Y-112986285D01*
X119139761Y-112980904D01*
X119140257Y-112973970D01*
X119161381Y-112876860D01*
X119194178Y-112719039D01*
X119198137Y-112707897D01*
X119200914Y-112695135D01*
X119238233Y-112595077D01*
X119285585Y-112461842D01*
X119293946Y-112445703D01*
X119300636Y-112427770D01*
X119351613Y-112334410D01*
X119411159Y-112219493D01*
X119425311Y-112199443D01*
X119437393Y-112177318D01*
X119499378Y-112094515D01*
X119568568Y-111996497D01*
X119589663Y-111973908D01*
X119608401Y-111948879D01*
X119678619Y-111878660D01*
X119754871Y-111797015D01*
X119783802Y-111773477D01*
X119810179Y-111747101D01*
X119885881Y-111690430D01*
X119966608Y-111624755D01*
X120003939Y-111602052D01*
X120038618Y-111576093D01*
X120117091Y-111533243D01*
X120199821Y-111482934D01*
X120245806Y-111462959D01*
X120289070Y-111439336D01*
X120367783Y-111409977D01*
X120450181Y-111374187D01*
X120504684Y-111358916D01*
X120556435Y-111339614D01*
X120633090Y-111322938D01*
X120713015Y-111300545D01*
X120775530Y-111291952D01*
X120835270Y-111278957D01*
X120907847Y-111273766D01*
X120983421Y-111263379D01*
X121053080Y-111263379D01*
X121119900Y-111258600D01*
X121186720Y-111263379D01*
G37*
M02*
