%TF.GenerationSoftware,KiCad,Pcbnew,8.0.5*%
%TF.CreationDate,2024-09-21T17:12:39+02:00*%
%TF.ProjectId,keycap,6b657963-6170-42e6-9b69-6361645f7063,rev?*%
%TF.SameCoordinates,Original*%
%TF.FileFunction,Drillmap*%
%TF.FilePolarity,Positive*%
%FSLAX45Y45*%
G04 Gerber Fmt 4.5, Leading zero omitted, Abs format (unit mm)*
G04 Created by KiCad (PCBNEW 8.0.5) date 2024-09-21 17:12:39*
%MOMM*%
%LPD*%
G01*
G04 APERTURE LIST*
%ADD10C,0.100000*%
%ADD11C,0.120000*%
%ADD12C,0.200000*%
%ADD13C,0.400000*%
G04 APERTURE END LIST*
D10*
X11341114Y-12104436D02*
X11341114Y-10556936D01*
X12887706Y-12104624D02*
X11341114Y-12104436D01*
X12888468Y-10557256D02*
X12887706Y-12104624D01*
X11341114Y-10556936D02*
X12888468Y-10557256D01*
D11*
X11940000Y-10670000D02*
X12280000Y-10670000D01*
X11940000Y-10970000D02*
X11940000Y-10670000D01*
X12280000Y-10670000D02*
X12280000Y-10970000D01*
X12280000Y-10970000D02*
X11940000Y-10970000D01*
D12*
D13*
X11911990Y-11125860D02*
X12311990Y-11525860D01*
X12311990Y-11125860D02*
X11911990Y-11525860D01*
D12*
X11596891Y-12421108D02*
X11596891Y-12221108D01*
X11596891Y-12221108D02*
X11644510Y-12221108D01*
X11644510Y-12221108D02*
X11673081Y-12230632D01*
X11673081Y-12230632D02*
X11692129Y-12249679D01*
X11692129Y-12249679D02*
X11701653Y-12268727D01*
X11701653Y-12268727D02*
X11711176Y-12306822D01*
X11711176Y-12306822D02*
X11711176Y-12335393D01*
X11711176Y-12335393D02*
X11701653Y-12373489D01*
X11701653Y-12373489D02*
X11692129Y-12392536D01*
X11692129Y-12392536D02*
X11673081Y-12411584D01*
X11673081Y-12411584D02*
X11644510Y-12421108D01*
X11644510Y-12421108D02*
X11596891Y-12421108D01*
X11796891Y-12421108D02*
X11796891Y-12287774D01*
X11796891Y-12325870D02*
X11806415Y-12306822D01*
X11806415Y-12306822D02*
X11815938Y-12297298D01*
X11815938Y-12297298D02*
X11834986Y-12287774D01*
X11834986Y-12287774D02*
X11854034Y-12287774D01*
X11920700Y-12421108D02*
X11920700Y-12287774D01*
X11920700Y-12221108D02*
X11911176Y-12230632D01*
X11911176Y-12230632D02*
X11920700Y-12240155D01*
X11920700Y-12240155D02*
X11930224Y-12230632D01*
X11930224Y-12230632D02*
X11920700Y-12221108D01*
X11920700Y-12221108D02*
X11920700Y-12240155D01*
X12044510Y-12421108D02*
X12025462Y-12411584D01*
X12025462Y-12411584D02*
X12015938Y-12392536D01*
X12015938Y-12392536D02*
X12015938Y-12221108D01*
X12149272Y-12421108D02*
X12130224Y-12411584D01*
X12130224Y-12411584D02*
X12120700Y-12392536D01*
X12120700Y-12392536D02*
X12120700Y-12221108D01*
X12377843Y-12421108D02*
X12377843Y-12221108D01*
X12377843Y-12221108D02*
X12444510Y-12363965D01*
X12444510Y-12363965D02*
X12511176Y-12221108D01*
X12511176Y-12221108D02*
X12511176Y-12421108D01*
X12692129Y-12421108D02*
X12692129Y-12316346D01*
X12692129Y-12316346D02*
X12682605Y-12297298D01*
X12682605Y-12297298D02*
X12663557Y-12287774D01*
X12663557Y-12287774D02*
X12625462Y-12287774D01*
X12625462Y-12287774D02*
X12606415Y-12297298D01*
X12692129Y-12411584D02*
X12673081Y-12421108D01*
X12673081Y-12421108D02*
X12625462Y-12421108D01*
X12625462Y-12421108D02*
X12606415Y-12411584D01*
X12606415Y-12411584D02*
X12596891Y-12392536D01*
X12596891Y-12392536D02*
X12596891Y-12373489D01*
X12596891Y-12373489D02*
X12606415Y-12354441D01*
X12606415Y-12354441D02*
X12625462Y-12344917D01*
X12625462Y-12344917D02*
X12673081Y-12344917D01*
X12673081Y-12344917D02*
X12692129Y-12335393D01*
X12787367Y-12287774D02*
X12787367Y-12487774D01*
X12787367Y-12297298D02*
X12806415Y-12287774D01*
X12806415Y-12287774D02*
X12844510Y-12287774D01*
X12844510Y-12287774D02*
X12863557Y-12297298D01*
X12863557Y-12297298D02*
X12873081Y-12306822D01*
X12873081Y-12306822D02*
X12882605Y-12325870D01*
X12882605Y-12325870D02*
X12882605Y-12383012D01*
X12882605Y-12383012D02*
X12873081Y-12402060D01*
X12873081Y-12402060D02*
X12863557Y-12411584D01*
X12863557Y-12411584D02*
X12844510Y-12421108D01*
X12844510Y-12421108D02*
X12806415Y-12421108D01*
X12806415Y-12421108D02*
X12787367Y-12411584D01*
X12968319Y-12402060D02*
X12977843Y-12411584D01*
X12977843Y-12411584D02*
X12968319Y-12421108D01*
X12968319Y-12421108D02*
X12958796Y-12411584D01*
X12958796Y-12411584D02*
X12968319Y-12402060D01*
X12968319Y-12402060D02*
X12968319Y-12421108D01*
X12968319Y-12297298D02*
X12977843Y-12306822D01*
X12977843Y-12306822D02*
X12968319Y-12316346D01*
X12968319Y-12316346D02*
X12958796Y-12306822D01*
X12958796Y-12306822D02*
X12968319Y-12297298D01*
X12968319Y-12297298D02*
X12968319Y-12316346D01*
X11136114Y-12649624D02*
X11336114Y-12849624D01*
X11336114Y-12649624D02*
X11136114Y-12849624D01*
X11682605Y-12707774D02*
X11682605Y-12841108D01*
X11634986Y-12631584D02*
X11587367Y-12774441D01*
X11587367Y-12774441D02*
X11711176Y-12774441D01*
X11787367Y-12822060D02*
X11796891Y-12831584D01*
X11796891Y-12831584D02*
X11787367Y-12841108D01*
X11787367Y-12841108D02*
X11777843Y-12831584D01*
X11777843Y-12831584D02*
X11787367Y-12822060D01*
X11787367Y-12822060D02*
X11787367Y-12841108D01*
X11920700Y-12641108D02*
X11939748Y-12641108D01*
X11939748Y-12641108D02*
X11958796Y-12650632D01*
X11958796Y-12650632D02*
X11968319Y-12660155D01*
X11968319Y-12660155D02*
X11977843Y-12679203D01*
X11977843Y-12679203D02*
X11987367Y-12717298D01*
X11987367Y-12717298D02*
X11987367Y-12764917D01*
X11987367Y-12764917D02*
X11977843Y-12803012D01*
X11977843Y-12803012D02*
X11968319Y-12822060D01*
X11968319Y-12822060D02*
X11958796Y-12831584D01*
X11958796Y-12831584D02*
X11939748Y-12841108D01*
X11939748Y-12841108D02*
X11920700Y-12841108D01*
X11920700Y-12841108D02*
X11901653Y-12831584D01*
X11901653Y-12831584D02*
X11892129Y-12822060D01*
X11892129Y-12822060D02*
X11882605Y-12803012D01*
X11882605Y-12803012D02*
X11873081Y-12764917D01*
X11873081Y-12764917D02*
X11873081Y-12717298D01*
X11873081Y-12717298D02*
X11882605Y-12679203D01*
X11882605Y-12679203D02*
X11892129Y-12660155D01*
X11892129Y-12660155D02*
X11901653Y-12650632D01*
X11901653Y-12650632D02*
X11920700Y-12641108D01*
X12111176Y-12641108D02*
X12130224Y-12641108D01*
X12130224Y-12641108D02*
X12149272Y-12650632D01*
X12149272Y-12650632D02*
X12158796Y-12660155D01*
X12158796Y-12660155D02*
X12168319Y-12679203D01*
X12168319Y-12679203D02*
X12177843Y-12717298D01*
X12177843Y-12717298D02*
X12177843Y-12764917D01*
X12177843Y-12764917D02*
X12168319Y-12803012D01*
X12168319Y-12803012D02*
X12158796Y-12822060D01*
X12158796Y-12822060D02*
X12149272Y-12831584D01*
X12149272Y-12831584D02*
X12130224Y-12841108D01*
X12130224Y-12841108D02*
X12111176Y-12841108D01*
X12111176Y-12841108D02*
X12092129Y-12831584D01*
X12092129Y-12831584D02*
X12082605Y-12822060D01*
X12082605Y-12822060D02*
X12073081Y-12803012D01*
X12073081Y-12803012D02*
X12063557Y-12764917D01*
X12063557Y-12764917D02*
X12063557Y-12717298D01*
X12063557Y-12717298D02*
X12073081Y-12679203D01*
X12073081Y-12679203D02*
X12082605Y-12660155D01*
X12082605Y-12660155D02*
X12092129Y-12650632D01*
X12092129Y-12650632D02*
X12111176Y-12641108D01*
X12301653Y-12641108D02*
X12320700Y-12641108D01*
X12320700Y-12641108D02*
X12339748Y-12650632D01*
X12339748Y-12650632D02*
X12349272Y-12660155D01*
X12349272Y-12660155D02*
X12358796Y-12679203D01*
X12358796Y-12679203D02*
X12368319Y-12717298D01*
X12368319Y-12717298D02*
X12368319Y-12764917D01*
X12368319Y-12764917D02*
X12358796Y-12803012D01*
X12358796Y-12803012D02*
X12349272Y-12822060D01*
X12349272Y-12822060D02*
X12339748Y-12831584D01*
X12339748Y-12831584D02*
X12320700Y-12841108D01*
X12320700Y-12841108D02*
X12301653Y-12841108D01*
X12301653Y-12841108D02*
X12282605Y-12831584D01*
X12282605Y-12831584D02*
X12273081Y-12822060D01*
X12273081Y-12822060D02*
X12263557Y-12803012D01*
X12263557Y-12803012D02*
X12254034Y-12764917D01*
X12254034Y-12764917D02*
X12254034Y-12717298D01*
X12254034Y-12717298D02*
X12263557Y-12679203D01*
X12263557Y-12679203D02*
X12273081Y-12660155D01*
X12273081Y-12660155D02*
X12282605Y-12650632D01*
X12282605Y-12650632D02*
X12301653Y-12641108D01*
X12454034Y-12841108D02*
X12454034Y-12707774D01*
X12454034Y-12726822D02*
X12463557Y-12717298D01*
X12463557Y-12717298D02*
X12482605Y-12707774D01*
X12482605Y-12707774D02*
X12511177Y-12707774D01*
X12511177Y-12707774D02*
X12530224Y-12717298D01*
X12530224Y-12717298D02*
X12539748Y-12736346D01*
X12539748Y-12736346D02*
X12539748Y-12841108D01*
X12539748Y-12736346D02*
X12549272Y-12717298D01*
X12549272Y-12717298D02*
X12568319Y-12707774D01*
X12568319Y-12707774D02*
X12596891Y-12707774D01*
X12596891Y-12707774D02*
X12615938Y-12717298D01*
X12615938Y-12717298D02*
X12625462Y-12736346D01*
X12625462Y-12736346D02*
X12625462Y-12841108D01*
X12720700Y-12841108D02*
X12720700Y-12707774D01*
X12720700Y-12726822D02*
X12730224Y-12717298D01*
X12730224Y-12717298D02*
X12749272Y-12707774D01*
X12749272Y-12707774D02*
X12777843Y-12707774D01*
X12777843Y-12707774D02*
X12796891Y-12717298D01*
X12796891Y-12717298D02*
X12806415Y-12736346D01*
X12806415Y-12736346D02*
X12806415Y-12841108D01*
X12806415Y-12736346D02*
X12815938Y-12717298D01*
X12815938Y-12717298D02*
X12834986Y-12707774D01*
X12834986Y-12707774D02*
X12863557Y-12707774D01*
X12863557Y-12707774D02*
X12882605Y-12717298D01*
X12882605Y-12717298D02*
X12892129Y-12736346D01*
X12892129Y-12736346D02*
X12892129Y-12841108D01*
X13282605Y-12631584D02*
X13111177Y-12888727D01*
X13539748Y-12641108D02*
X13558796Y-12641108D01*
X13558796Y-12641108D02*
X13577843Y-12650632D01*
X13577843Y-12650632D02*
X13587367Y-12660155D01*
X13587367Y-12660155D02*
X13596891Y-12679203D01*
X13596891Y-12679203D02*
X13606415Y-12717298D01*
X13606415Y-12717298D02*
X13606415Y-12764917D01*
X13606415Y-12764917D02*
X13596891Y-12803012D01*
X13596891Y-12803012D02*
X13587367Y-12822060D01*
X13587367Y-12822060D02*
X13577843Y-12831584D01*
X13577843Y-12831584D02*
X13558796Y-12841108D01*
X13558796Y-12841108D02*
X13539748Y-12841108D01*
X13539748Y-12841108D02*
X13520700Y-12831584D01*
X13520700Y-12831584D02*
X13511177Y-12822060D01*
X13511177Y-12822060D02*
X13501653Y-12803012D01*
X13501653Y-12803012D02*
X13492129Y-12764917D01*
X13492129Y-12764917D02*
X13492129Y-12717298D01*
X13492129Y-12717298D02*
X13501653Y-12679203D01*
X13501653Y-12679203D02*
X13511177Y-12660155D01*
X13511177Y-12660155D02*
X13520700Y-12650632D01*
X13520700Y-12650632D02*
X13539748Y-12641108D01*
X13692129Y-12822060D02*
X13701653Y-12831584D01*
X13701653Y-12831584D02*
X13692129Y-12841108D01*
X13692129Y-12841108D02*
X13682605Y-12831584D01*
X13682605Y-12831584D02*
X13692129Y-12822060D01*
X13692129Y-12822060D02*
X13692129Y-12841108D01*
X13892129Y-12841108D02*
X13777843Y-12841108D01*
X13834986Y-12841108D02*
X13834986Y-12641108D01*
X13834986Y-12641108D02*
X13815939Y-12669679D01*
X13815939Y-12669679D02*
X13796891Y-12688727D01*
X13796891Y-12688727D02*
X13777843Y-12698251D01*
X14073081Y-12641108D02*
X13977843Y-12641108D01*
X13977843Y-12641108D02*
X13968320Y-12736346D01*
X13968320Y-12736346D02*
X13977843Y-12726822D01*
X13977843Y-12726822D02*
X13996891Y-12717298D01*
X13996891Y-12717298D02*
X14044510Y-12717298D01*
X14044510Y-12717298D02*
X14063558Y-12726822D01*
X14063558Y-12726822D02*
X14073081Y-12736346D01*
X14073081Y-12736346D02*
X14082605Y-12755393D01*
X14082605Y-12755393D02*
X14082605Y-12803012D01*
X14082605Y-12803012D02*
X14073081Y-12822060D01*
X14073081Y-12822060D02*
X14063558Y-12831584D01*
X14063558Y-12831584D02*
X14044510Y-12841108D01*
X14044510Y-12841108D02*
X13996891Y-12841108D01*
X13996891Y-12841108D02*
X13977843Y-12831584D01*
X13977843Y-12831584D02*
X13968320Y-12822060D01*
X14149272Y-12641108D02*
X14282605Y-12641108D01*
X14282605Y-12641108D02*
X14196891Y-12841108D01*
X14454034Y-12641108D02*
X14358796Y-12641108D01*
X14358796Y-12641108D02*
X14349272Y-12736346D01*
X14349272Y-12736346D02*
X14358796Y-12726822D01*
X14358796Y-12726822D02*
X14377843Y-12717298D01*
X14377843Y-12717298D02*
X14425462Y-12717298D01*
X14425462Y-12717298D02*
X14444510Y-12726822D01*
X14444510Y-12726822D02*
X14454034Y-12736346D01*
X14454034Y-12736346D02*
X14463558Y-12755393D01*
X14463558Y-12755393D02*
X14463558Y-12803012D01*
X14463558Y-12803012D02*
X14454034Y-12822060D01*
X14454034Y-12822060D02*
X14444510Y-12831584D01*
X14444510Y-12831584D02*
X14425462Y-12841108D01*
X14425462Y-12841108D02*
X14377843Y-12841108D01*
X14377843Y-12841108D02*
X14358796Y-12831584D01*
X14358796Y-12831584D02*
X14349272Y-12822060D01*
X14539748Y-12641108D02*
X14539748Y-12679203D01*
X14615939Y-12641108D02*
X14615939Y-12679203D01*
X14911177Y-12917298D02*
X14901653Y-12907774D01*
X14901653Y-12907774D02*
X14882605Y-12879203D01*
X14882605Y-12879203D02*
X14873082Y-12860155D01*
X14873082Y-12860155D02*
X14863558Y-12831584D01*
X14863558Y-12831584D02*
X14854034Y-12783965D01*
X14854034Y-12783965D02*
X14854034Y-12745870D01*
X14854034Y-12745870D02*
X14863558Y-12698251D01*
X14863558Y-12698251D02*
X14873082Y-12669679D01*
X14873082Y-12669679D02*
X14882605Y-12650632D01*
X14882605Y-12650632D02*
X14901653Y-12622060D01*
X14901653Y-12622060D02*
X14911177Y-12612536D01*
X15092129Y-12841108D02*
X14977843Y-12841108D01*
X15034986Y-12841108D02*
X15034986Y-12641108D01*
X15034986Y-12641108D02*
X15015939Y-12669679D01*
X15015939Y-12669679D02*
X14996891Y-12688727D01*
X14996891Y-12688727D02*
X14977843Y-12698251D01*
X15330224Y-12841108D02*
X15330224Y-12641108D01*
X15415939Y-12841108D02*
X15415939Y-12736346D01*
X15415939Y-12736346D02*
X15406415Y-12717298D01*
X15406415Y-12717298D02*
X15387367Y-12707774D01*
X15387367Y-12707774D02*
X15358796Y-12707774D01*
X15358796Y-12707774D02*
X15339748Y-12717298D01*
X15339748Y-12717298D02*
X15330224Y-12726822D01*
X15539748Y-12841108D02*
X15520701Y-12831584D01*
X15520701Y-12831584D02*
X15511177Y-12822060D01*
X15511177Y-12822060D02*
X15501653Y-12803012D01*
X15501653Y-12803012D02*
X15501653Y-12745870D01*
X15501653Y-12745870D02*
X15511177Y-12726822D01*
X15511177Y-12726822D02*
X15520701Y-12717298D01*
X15520701Y-12717298D02*
X15539748Y-12707774D01*
X15539748Y-12707774D02*
X15568320Y-12707774D01*
X15568320Y-12707774D02*
X15587367Y-12717298D01*
X15587367Y-12717298D02*
X15596891Y-12726822D01*
X15596891Y-12726822D02*
X15606415Y-12745870D01*
X15606415Y-12745870D02*
X15606415Y-12803012D01*
X15606415Y-12803012D02*
X15596891Y-12822060D01*
X15596891Y-12822060D02*
X15587367Y-12831584D01*
X15587367Y-12831584D02*
X15568320Y-12841108D01*
X15568320Y-12841108D02*
X15539748Y-12841108D01*
X15720701Y-12841108D02*
X15701653Y-12831584D01*
X15701653Y-12831584D02*
X15692129Y-12812536D01*
X15692129Y-12812536D02*
X15692129Y-12641108D01*
X15873082Y-12831584D02*
X15854034Y-12841108D01*
X15854034Y-12841108D02*
X15815939Y-12841108D01*
X15815939Y-12841108D02*
X15796891Y-12831584D01*
X15796891Y-12831584D02*
X15787367Y-12812536D01*
X15787367Y-12812536D02*
X15787367Y-12736346D01*
X15787367Y-12736346D02*
X15796891Y-12717298D01*
X15796891Y-12717298D02*
X15815939Y-12707774D01*
X15815939Y-12707774D02*
X15854034Y-12707774D01*
X15854034Y-12707774D02*
X15873082Y-12717298D01*
X15873082Y-12717298D02*
X15882605Y-12736346D01*
X15882605Y-12736346D02*
X15882605Y-12755393D01*
X15882605Y-12755393D02*
X15787367Y-12774441D01*
X15949272Y-12917298D02*
X15958796Y-12907774D01*
X15958796Y-12907774D02*
X15977844Y-12879203D01*
X15977844Y-12879203D02*
X15987367Y-12860155D01*
X15987367Y-12860155D02*
X15996891Y-12831584D01*
X15996891Y-12831584D02*
X16006415Y-12783965D01*
X16006415Y-12783965D02*
X16006415Y-12745870D01*
X16006415Y-12745870D02*
X15996891Y-12698251D01*
X15996891Y-12698251D02*
X15987367Y-12669679D01*
X15987367Y-12669679D02*
X15977844Y-12650632D01*
X15977844Y-12650632D02*
X15958796Y-12622060D01*
X15958796Y-12622060D02*
X15949272Y-12612536D01*
X16311177Y-12917298D02*
X16301653Y-12907774D01*
X16301653Y-12907774D02*
X16282605Y-12879203D01*
X16282605Y-12879203D02*
X16273082Y-12860155D01*
X16273082Y-12860155D02*
X16263558Y-12831584D01*
X16263558Y-12831584D02*
X16254034Y-12783965D01*
X16254034Y-12783965D02*
X16254034Y-12745870D01*
X16254034Y-12745870D02*
X16263558Y-12698251D01*
X16263558Y-12698251D02*
X16273082Y-12669679D01*
X16273082Y-12669679D02*
X16282605Y-12650632D01*
X16282605Y-12650632D02*
X16301653Y-12622060D01*
X16301653Y-12622060D02*
X16311177Y-12612536D01*
X16387367Y-12707774D02*
X16387367Y-12841108D01*
X16387367Y-12726822D02*
X16396891Y-12717298D01*
X16396891Y-12717298D02*
X16415939Y-12707774D01*
X16415939Y-12707774D02*
X16444510Y-12707774D01*
X16444510Y-12707774D02*
X16463558Y-12717298D01*
X16463558Y-12717298D02*
X16473082Y-12736346D01*
X16473082Y-12736346D02*
X16473082Y-12841108D01*
X16596891Y-12841108D02*
X16577844Y-12831584D01*
X16577844Y-12831584D02*
X16568320Y-12822060D01*
X16568320Y-12822060D02*
X16558796Y-12803012D01*
X16558796Y-12803012D02*
X16558796Y-12745870D01*
X16558796Y-12745870D02*
X16568320Y-12726822D01*
X16568320Y-12726822D02*
X16577844Y-12717298D01*
X16577844Y-12717298D02*
X16596891Y-12707774D01*
X16596891Y-12707774D02*
X16625463Y-12707774D01*
X16625463Y-12707774D02*
X16644510Y-12717298D01*
X16644510Y-12717298D02*
X16654034Y-12726822D01*
X16654034Y-12726822D02*
X16663558Y-12745870D01*
X16663558Y-12745870D02*
X16663558Y-12803012D01*
X16663558Y-12803012D02*
X16654034Y-12822060D01*
X16654034Y-12822060D02*
X16644510Y-12831584D01*
X16644510Y-12831584D02*
X16625463Y-12841108D01*
X16625463Y-12841108D02*
X16596891Y-12841108D01*
X16720701Y-12707774D02*
X16796891Y-12707774D01*
X16749272Y-12641108D02*
X16749272Y-12812536D01*
X16749272Y-12812536D02*
X16758796Y-12831584D01*
X16758796Y-12831584D02*
X16777844Y-12841108D01*
X16777844Y-12841108D02*
X16796891Y-12841108D01*
X17015939Y-12707774D02*
X17015939Y-12907774D01*
X17015939Y-12717298D02*
X17034987Y-12707774D01*
X17034987Y-12707774D02*
X17073082Y-12707774D01*
X17073082Y-12707774D02*
X17092129Y-12717298D01*
X17092129Y-12717298D02*
X17101653Y-12726822D01*
X17101653Y-12726822D02*
X17111177Y-12745870D01*
X17111177Y-12745870D02*
X17111177Y-12803012D01*
X17111177Y-12803012D02*
X17101653Y-12822060D01*
X17101653Y-12822060D02*
X17092129Y-12831584D01*
X17092129Y-12831584D02*
X17073082Y-12841108D01*
X17073082Y-12841108D02*
X17034987Y-12841108D01*
X17034987Y-12841108D02*
X17015939Y-12831584D01*
X17225463Y-12841108D02*
X17206415Y-12831584D01*
X17206415Y-12831584D02*
X17196891Y-12812536D01*
X17196891Y-12812536D02*
X17196891Y-12641108D01*
X17387368Y-12841108D02*
X17387368Y-12736346D01*
X17387368Y-12736346D02*
X17377844Y-12717298D01*
X17377844Y-12717298D02*
X17358796Y-12707774D01*
X17358796Y-12707774D02*
X17320701Y-12707774D01*
X17320701Y-12707774D02*
X17301653Y-12717298D01*
X17387368Y-12831584D02*
X17368320Y-12841108D01*
X17368320Y-12841108D02*
X17320701Y-12841108D01*
X17320701Y-12841108D02*
X17301653Y-12831584D01*
X17301653Y-12831584D02*
X17292129Y-12812536D01*
X17292129Y-12812536D02*
X17292129Y-12793489D01*
X17292129Y-12793489D02*
X17301653Y-12774441D01*
X17301653Y-12774441D02*
X17320701Y-12764917D01*
X17320701Y-12764917D02*
X17368320Y-12764917D01*
X17368320Y-12764917D02*
X17387368Y-12755393D01*
X17454034Y-12707774D02*
X17530225Y-12707774D01*
X17482606Y-12641108D02*
X17482606Y-12812536D01*
X17482606Y-12812536D02*
X17492129Y-12831584D01*
X17492129Y-12831584D02*
X17511177Y-12841108D01*
X17511177Y-12841108D02*
X17530225Y-12841108D01*
X17673082Y-12831584D02*
X17654034Y-12841108D01*
X17654034Y-12841108D02*
X17615939Y-12841108D01*
X17615939Y-12841108D02*
X17596891Y-12831584D01*
X17596891Y-12831584D02*
X17587368Y-12812536D01*
X17587368Y-12812536D02*
X17587368Y-12736346D01*
X17587368Y-12736346D02*
X17596891Y-12717298D01*
X17596891Y-12717298D02*
X17615939Y-12707774D01*
X17615939Y-12707774D02*
X17654034Y-12707774D01*
X17654034Y-12707774D02*
X17673082Y-12717298D01*
X17673082Y-12717298D02*
X17682606Y-12736346D01*
X17682606Y-12736346D02*
X17682606Y-12755393D01*
X17682606Y-12755393D02*
X17587368Y-12774441D01*
X17854034Y-12841108D02*
X17854034Y-12641108D01*
X17854034Y-12831584D02*
X17834987Y-12841108D01*
X17834987Y-12841108D02*
X17796891Y-12841108D01*
X17796891Y-12841108D02*
X17777844Y-12831584D01*
X17777844Y-12831584D02*
X17768320Y-12822060D01*
X17768320Y-12822060D02*
X17758796Y-12803012D01*
X17758796Y-12803012D02*
X17758796Y-12745870D01*
X17758796Y-12745870D02*
X17768320Y-12726822D01*
X17768320Y-12726822D02*
X17777844Y-12717298D01*
X17777844Y-12717298D02*
X17796891Y-12707774D01*
X17796891Y-12707774D02*
X17834987Y-12707774D01*
X17834987Y-12707774D02*
X17854034Y-12717298D01*
X17930225Y-12917298D02*
X17939749Y-12907774D01*
X17939749Y-12907774D02*
X17958796Y-12879203D01*
X17958796Y-12879203D02*
X17968320Y-12860155D01*
X17968320Y-12860155D02*
X17977844Y-12831584D01*
X17977844Y-12831584D02*
X17987368Y-12783965D01*
X17987368Y-12783965D02*
X17987368Y-12745870D01*
X17987368Y-12745870D02*
X17977844Y-12698251D01*
X17977844Y-12698251D02*
X17968320Y-12669679D01*
X17968320Y-12669679D02*
X17958796Y-12650632D01*
X17958796Y-12650632D02*
X17939749Y-12622060D01*
X17939749Y-12622060D02*
X17930225Y-12612536D01*
M02*
